HIERARCHY
ROOT hip
{
  OFFSET -162.945 82.1424 -35.9309
  CHANNELS 6 Xposition Yposition Zposition Zrotation Xrotation Yrotation
  JOINT abdomen
  {
    OFFSET 0 20.6881 -0.73152
    CHANNELS 3 Zrotation Xrotation Yrotation
    JOINT chest
    {
      OFFSET 0 11.7043 -0.48768
      CHANNELS 3 Zrotation Xrotation Yrotation
      JOINT neck
      {
        OFFSET 0 22.1894 -2.19456
        CHANNELS 3 Zrotation Xrotation Yrotation
        JOINT head
        {
          OFFSET -0.24384 7.07133 1.2192
          CHANNELS 3 Zrotation Xrotation Yrotation
          JOINT leftEye
          {
            OFFSET 4.14528 8.04674 8.04672
            CHANNELS 3 Zrotation Xrotation Yrotation
            End Site
            {
              OFFSET 1 0 0
            }
          }
          JOINT rightEye
          {
            OFFSET -3.6576 8.04674 8.04672
            CHANNELS 3 Zrotation Xrotation Yrotation
            End Site
            {
              OFFSET 1 0 0
            }
          }
        }
      }
      JOINT rCollar
      {
        OFFSET -2.68224 19.2634 -4.8768
        CHANNELS 3 Zrotation Xrotation Yrotation
        JOINT rShldr
        {
          OFFSET -8.77824 -1.95073 1.46304
          CHANNELS 3 Zrotation Xrotation Yrotation
          JOINT rForeArm
          {
            OFFSET -28.1742 -1.7115 0.48768
            CHANNELS 3 Zrotation Xrotation Yrotation
            JOINT rHand
            {
              OFFSET -22.5879 0.773209 7.07136
              CHANNELS 3 Zrotation Xrotation Yrotation
              JOINT rThumb1
              {
                OFFSET -1.2192 -0.487915 3.41376
                CHANNELS 3 Zrotation Xrotation Yrotation
                JOINT rThumb2
                {
                  OFFSET -3.37035 -0.52449 3.41376
                  CHANNELS 3 Zrotation Xrotation Yrotation
                  End Site
                  {
                    OFFSET -1.78271 -1.18214 1.43049
                  }
                }
              }
              JOINT rIndex1
              {
                OFFSET -7.75947 0.938293 5.60832
                CHANNELS 3 Zrotation Xrotation Yrotation
                JOINT rIndex2
                {
                  OFFSET -2.54057 -0.884171 1.56538
                  CHANNELS 3 Zrotation Xrotation Yrotation
                  End Site
                  {
                    OFFSET -1.62519 -0.234802 1.16502
                  }
                }
              }
              JOINT rMid1
              {
                OFFSET -8.24714 1.18213 3.41376
                CHANNELS 3 Zrotation Xrotation Yrotation
                JOINT rMid2
                {
                  OFFSET -3.10165 -0.590103 1.0647
                  CHANNELS 3 Zrotation Xrotation Yrotation
                  End Site
                  {
                    OFFSET -2.48547 -0.328903 0.83742
                  }
                }
              }
              JOINT rRing1
              {
                OFFSET -8.82822 0.546677 1.51678
                CHANNELS 3 Zrotation Xrotation Yrotation
                JOINT rRing2
                {
                  OFFSET -2.60934 -0.819778 -0.0198488
                  CHANNELS 3 Zrotation Xrotation Yrotation
                  End Site
                  {
                    OFFSET -2.33842 -0.294052 0.168128
                  }
                }
              }
              JOINT rPinky1
              {
                OFFSET -8.27202 -0.0477905 -0.4584
                CHANNELS 3 Zrotation Xrotation Yrotation
                JOINT rPinky2
                {
                  OFFSET -1.82734 -0.647385 -0.700984
                  CHANNELS 3 Zrotation Xrotation Yrotation
                  End Site
                  {
                    OFFSET -1.69225 -0.51767 -0.607171
                  }
                }
              }
            }
          }
        }
      }
      JOINT lCollar
      {
        OFFSET 2.68224 19.2634 -4.8768
        CHANNELS 3 Zrotation Xrotation Yrotation
        JOINT lShldr
        {
          OFFSET 8.77824 -1.95073 1.46304
          CHANNELS 3 Zrotation Xrotation Yrotation
          JOINT lForeArm
          {
            OFFSET 28.1742 -1.7115 0.48768
            CHANNELS 3 Zrotation Xrotation Yrotation
            JOINT lHand
            {
              OFFSET 22.5879 0.773209 7.07136
              CHANNELS 3 Zrotation Xrotation Yrotation
              JOINT lThumb1
              {
                OFFSET 1.2192 -0.487915 3.41376
                CHANNELS 3 Zrotation Xrotation Yrotation
                JOINT lThumb2
                {
                  OFFSET 3.37035 -0.52449 3.41376
                  CHANNELS 3 Zrotation Xrotation Yrotation
                  End Site
                  {
                    OFFSET 1.78271 -1.18214 1.43049
                  }
                }
              }
              JOINT lIndex1
              {
                OFFSET 7.75947 0.938293 5.60832
                CHANNELS 3 Zrotation Xrotation Yrotation
                JOINT lIndex2
                {
                  OFFSET 2.54057 -0.884171 1.56538
                  CHANNELS 3 Zrotation Xrotation Yrotation
                  End Site
                  {
                    OFFSET 1.62519 -0.234802 1.16502
                  }
                }
              }
              JOINT lMid1
              {
                OFFSET 8.24714 1.18213 3.41376
                CHANNELS 3 Zrotation Xrotation Yrotation
                JOINT lMid2
                {
                  OFFSET 3.10165 -0.590103 1.0647
                  CHANNELS 3 Zrotation Xrotation Yrotation
                  End Site
                  {
                    OFFSET 2.48547 -0.328903 0.83742
                  }
                }
              }
              JOINT lRing1
              {
                OFFSET 8.82822 0.546677 1.51678
                CHANNELS 3 Zrotation Xrotation Yrotation
                JOINT lRing2
                {
                  OFFSET 2.60934 -0.819778 -0.0198488
                  CHANNELS 3 Zrotation Xrotation Yrotation
                  End Site
                  {
                    OFFSET 2.33842 -0.294052 0.168128
                  }
                }
              }
              JOINT lPinky1
              {
                OFFSET 8.27202 -0.0477905 -0.4584
                CHANNELS 3 Zrotation Xrotation Yrotation
                JOINT lPinky2
                {
                  OFFSET 1.82734 -0.647385 -0.700984
                  CHANNELS 3 Zrotation Xrotation Yrotation
                  End Site
                  {
                    OFFSET 1.69225 -0.51767 -0.607171
                  }
                }
              }
            }
          }
        }
      }
    }
  }
  JOINT rButtock
  {
    OFFSET -8.77824 4.35084 1.2192
    CHANNELS 3 Zrotation Xrotation Yrotation
    JOINT rThigh
    {
      OFFSET 0 -1.70687 -2.19456
      CHANNELS 3 Zrotation Xrotation Yrotation
      JOINT rShin
      {
        OFFSET 0 -36.8199 0.73152
        CHANNELS 3 Zrotation Xrotation Yrotation
        JOINT rFoot
        {
          OFFSET 0.73152 -45.1104 -5.12064
          CHANNELS 3 Zrotation Xrotation Yrotation
          End Site
          {
            OFFSET -1.1221 -3.69964 12.103
          }
        }
      }
    }
  }
  JOINT lButtock
  {
    OFFSET 8.77824 4.35084 1.2192
    CHANNELS 3 Zrotation Xrotation Yrotation
    JOINT lThigh
    {
      OFFSET 0 -1.70687 -2.19456
      CHANNELS 3 Zrotation Xrotation Yrotation
      JOINT lShin
      {
        OFFSET 0 -36.8199 0.73152
        CHANNELS 3 Zrotation Xrotation Yrotation
        JOINT lFoot
        {
          OFFSET -0.73152 -45.1104 -5.12064
          CHANNELS 3 Zrotation Xrotation Yrotation
          End Site
          {
            OFFSET 1.1221 -3.69964 12.103
          }
        }
      }
    }
  }
}
MOTION
Frames:	4
Frame Time:	0.00833333
-92.3013 69.662 -12.5496 19.1488 -3.92772 -157.899 -20.8411 43.7828 1.13158 -3.55873 -8.44445 -0.0687416 -13.0653 13.4339 -4.27364 41.9698 -55.6838 18.0253 -0 0 0 -0 0 0 -2.38502e-013 -9.54263e-014 -1.26228e-014 53.5408 -1.80347 14.797 -28.3836 -33.9794 73.666 -1.0615 -27.9118 -4.2696 -5.17066e-010 -2.60873e-009 -3.06521e-009 -8.35344e-010 -4.61065e-009 -5.29971e-009 -5.17069e-010 -2.60872e-009 -3.06522e-009 7.73091 5.47488 0.417314 -5.17071e-010 -2.60872e-009 -3.06521e-009 2.90554 0.965183 0.102902 -5.17055e-010 -2.60872e-009 -3.06521e-009 10.2786 0.731801 0.0259123 -5.17063e-010 -2.60872e-009 -3.06521e-009 2.22167 -0.733487 -0.20892 -2.38597e-013 -9.54077e-014 -1.28713e-014 -60.4434 8.38793 12.6809 27.7988 -29.5237 -66.4893 0.915097 -26.0957 3.9472 7.30345e-010 3.29403e-009 4.73956e-009 1.16177e-009 5.54978e-009 8.20059e-009 7.30343e-010 3.29404e-009 4.73957e-009 -7.73091 5.47488 -0.417314 7.30348e-010 3.29404e-009 4.73957e-009 -2.90554 0.965183 -0.102902 7.30344e-010 3.29403e-009 4.73956e-009 -10.2786 0.731801 -0.0259123 7.3035e-010 3.29403e-009 4.73955e-009 -2.22167 -0.733487 0.20892 -2.03217e-016 0 -3.88251e-019 -37.0834 -56.5405 -39.3765 -3.90729 76.3053 3.38341 0.770495 12.3878 -25.8229 2.03217e-016 0 3.88251e-019 25.2205 -20.6542 15.4848 0.03368 41.1402 -1.96447 -0.961319 10.3617 12.2251 
-90.5015 70.0899 -12.558 18.8606 -4.01839 -158.617 -20.6078 43.8631 0.899404 -3.19727 -8.30993 -0.0642342 -13.0956 13.7915 -4.24961 42.2979 -55.4081 17.9343 -0 0 0 -0 0 0 -2.61302e-013 -3.18351e-014 1.65988e-013 53.0641 -2.81502 14.4517 -28.4237 -34.8737 75.1475 -1.13291 -28.7607 -4.42312 -1.5026e-009 -2.23753e-009 -3.45668e-009 -2.52487e-009 -4.03087e-009 -5.99738e-009 -1.5026e-009 -2.23753e-009 -3.45669e-009 7.73091 5.47488 0.417314 -1.5026e-009 -2.23753e-009 -3.45668e-009 2.90554 0.965183 0.102902 -1.50259e-009 -2.23753e-009 -3.45668e-009 10.2786 0.731801 0.0259123 -1.5026e-009 -2.23753e-009 -3.45667e-009 2.22167 -0.733487 -0.20892 -2.61406e-013 -3.18263e-014 1.65692e-013 -60.3437 9.89585 12.3677 27.8045 -29.5549 -66.5458 0.889316 -25.7622 3.88895 1.80305e-011 1.85186e-009 4.13245e-009 -5.59671e-011 3.07021e-009 7.14074e-009 1.8027e-011 1.85186e-009 4.13246e-009 -7.73091 5.47488 -0.417314 1.80336e-011 1.85186e-009 4.13246e-009 -2.90554 0.965183 -0.102902 1.80297e-011 1.85186e-009 4.13246e-009 -10.2786 0.731801 -0.0259123 1.80366e-011 1.85186e-009 4.13244e-009 -2.22167 -0.733487 0.20892 -2.03217e-016 0 -3.88251e-019 -35.313 -55.715 -38.9274 -3.74156 75.889 3.26679 0.822213 12.4647 -25.2319 2.03217e-016 0 3.88251e-019 26.1341 -22.8456 18.0643 0.140897 44.2979 -1.94658 -0.572616 10.4051 10.0891 
-88.9423 70.5513 -12.4123 18.3398 -4.15955 -159.456 -20.1771 44.1707 0.676055 -2.63791 -8.12836 -0.0238689 -13.3106 14.045 -4.29146 43.106 -55.2098 18.1191 -0 0 0 -0 0 0 -2.46236e-013 1.02777e-013 4.57888e-013 52.4457 -4.08006 14.0431 -28.442 -35.7605 76.5798 -1.22785 -29.8103 -4.61758 -3.03944e-009 -1.52091e-009 -4.26158e-009 -5.15623e-009 -2.88859e-009 -7.42082e-009 -3.03943e-009 -1.52092e-009 -4.26159e-009 7.73091 5.47488 0.417314 -3.03944e-009 -1.52091e-009 -4.26158e-009 2.90554 0.965183 0.102902 -3.03943e-009 -1.52091e-009 -4.26158e-009 10.2786 0.731801 0.0259123 -3.03944e-009 -1.52091e-009 -4.26157e-009 2.22167 -0.733487 -0.20892 -2.46334e-013 1.02767e-013 4.57546e-013 -60.0873 11.5354 11.5654 27.7922 -29.4934 -66.4466 0.857021 -25.3311 3.81429 -1.15132e-009 -6.15844e-010 3.23293e-009 -2.05733e-009 -1.17811e-009 5.56895e-009 -1.15133e-009 -6.15842e-010 3.23295e-009 -7.73091 5.47488 -0.417314 -1.15132e-009 -6.15841e-010 3.23294e-009 -2.90554 0.965183 -0.102902 -1.15133e-009 -6.15841e-010 3.23293e-009 -10.2786 0.731801 -0.0259123 -1.15132e-009 -6.15839e-010 3.23291e-009 -2.22167 -0.733487 0.20892 -2.03217e-016 0 -3.88251e-019 -33.476 -54.8789 -38.6714 -3.61682 75.591 3.20473 0.752299 12.307 -24.4123 2.03217e-016 0 3.88251e-019 27.59 -25.253 21.2562 0.272407 48.1151 -1.948 -0.144985 9.59785 8.53169 
-87.3836 70.9715 -12.2078 17.668 -4.37007 -160.335 -19.5952 44.554 0.460338 -2.01471 -7.927 0.0360407 -13.5494 14.25 -4.36811 44.1943 -55.0712 18.4821 -0 0 0 -0 0 0 -1.99864e-013 2.43252e-013 7.28065e-013 51.8486 -5.48501 13.6026 -28.4292 -36.574 77.9247 -1.33768 -30.944 -4.833 -4.4733e-009 -8.17602e-010 -5.02626e-009 -7.6111e-009 -1.76126e-009 -8.77236e-009 -4.47329e-009 -8.17624e-010 -5.02626e-009 7.73091 5.47488 0.417314 -4.4733e-009 -8.17612e-010 -5.02625e-009 2.90554 0.965183 0.102902 -4.47329e-009 -8.17611e-010 -5.02625e-009 10.2786 0.731801 0.0259123 -4.47331e-009 -8.17607e-010 -5.02624e-009 2.22167 -0.733487 -0.20892 -1.99955e-013 2.43224e-013 7.27686e-013 -59.6849 13.2199 10.4867 27.7715 -29.3902 -66.2785 0.823935 -24.8742 3.7359 -2.27162e-009 -2.86813e-009 2.4889e-009 -3.97662e-009 -5.05744e-009 4.26655e-009 -2.27163e-009 -2.86813e-009 2.48892e-009 -7.73091 5.47488 -0.417314 -2.27162e-009 -2.86813e-009 2.4889e-009 -2.90554 0.965183 -0.102902 -2.27163e-009 -2.86813e-009 2.48889e-009 -10.2786 0.731801 -0.0259123 -2.27162e-009 -2.86812e-009 2.48888e-009 -2.22167 -0.733487 0.20892 -2.03217e-016 0 -3.88251e-019 -31.732 -54.0884 -38.6931 -3.52395 75.3997 3.18443 0.518716 11.8068 -23.3061 2.03217e-016 0 3.88251e-019 29.381 -27.7115 24.7109 0.428328 52.1555 -1.97434 0.227126 8.44471 7.49914 
